<?xml version="1.0" encoding="UTF-8" standalone="no"?>
<svg
   id="emoji"
   viewBox="0 0 72 72"
   version="1.1"
   sodipodi:docname="1F9D1-200D-2696-FE0F.svg"
   inkscape:version="1.1.2 (b8e25be833, 2022-02-05)"
   xmlns:inkscape="http://www.inkscape.org/namespaces/inkscape"
   xmlns:sodipodi="http://sodipodi.sourceforge.net/DTD/sodipodi-0.dtd"
   xmlns="http://www.w3.org/2000/svg"
   xmlns:svg="http://www.w3.org/2000/svg">
  <defs
     id="defs8" />
  <sodipodi:namedview
     id="namedview6"
     pagecolor="#ffffff"
     bordercolor="#666666"
     borderopacity="1.0"
     inkscape:pageshadow="2"
     inkscape:pageopacity="0.0"
     inkscape:pagecheckerboard="0"
     showgrid="false"
     inkscape:zoom="9.3194444"
     inkscape:cx="35.946349"
     inkscape:cy="36"
     inkscape:current-layer="emoji" />
  <path
     style="fill:#000000;stroke:none;stroke-width:3.77953;stroke-linecap:round;stroke-linejoin:round;stroke-miterlimit:10;paint-order:stroke fill markers"
     d="m 48.608048,26.396424 c -1.420254,-0.02486 -2.961998,1.596405 -4.184799,2.360655 -3.531813,4.098529 -6.807857,9.050379 -7.189269,13.198212 -0.0865,0.908217 -0.668156,2.972017 0,3.862891 1.433974,1.911966 4.684523,-2.045732 5.472429,-2.789866 2.795338,-2.640041 6.331966,-7.566783 8.262295,-10.944858 0.503962,-0.881934 0.853078,-1.920762 1.28763,-2.789866 0.126883,-0.253765 -0.18909,-0.883935 0,-1.073025 0.317599,-0.317599 3.160653,1.255609 3.648286,1.394933 2.719326,0.77695 4.427196,5.081756 6.652757,3.540983 0.378232,-0.261853 3.317095,-4.595439 3.540984,-5.043219 0.535198,-1.070395 0.34341,-2.661268 0.643816,-3.862891 0.189903,-0.759612 1.757226,-1.884129 1.394932,-2.789866 -0.333239,-0.833097 -3.298864,-1.964461 -3.970193,-2.467958 -1.80746,-1.355595 -3.43655,-2.89068 -5.365127,-4.077496 -2.056052,-1.265263 -4.532912,-1.754733 -6.76006,-2.575261 -0.393945,-0.145138 -5.379278,-2.7088974 -5.901639,-2.3606564 -0.766733,0.5111564 -0.934991,1.3232834 -1.394933,2.0387484 -0.475742,0.740044 -1.381456,1.243959 -1.931445,1.931446 -1.331368,1.664209 -2.683588,5.038094 -2.253353,7.189269 0.0991,0.495513 3.645064,2.57204 3.970193,2.897169 0.465009,0.465009 3.014926,0.546968 4.399404,1.931446 0.133689,0.133689 0.294277,0.275163 -0.321908,0.42921 z"
     id="path971"
     sodipodi:nodetypes="cccsssssssssssssssssssc" />
  <path
     style="fill:none;stroke:#000000;stroke-width:3.77953;stroke-linecap:round;stroke-linejoin:round;stroke-miterlimit:10;paint-order:stroke fill markers"
     d="m 4.2921013,67.171386 c 5.8007817,0.06083 11.7104317,0.395296 17.4903127,-0.107303 2.056078,-0.178789 4.178316,0.001 6.223547,-0.321907 2.944937,-0.46499 5.739495,-0.885127 8.691505,-1.180328 0.428122,-0.04281 3.001139,0.328573 3.219076,-0.107303 0.07383,-0.147653 -3.889668,-6.679406 -4.292101,-8.154992 -0.423658,-1.553414 -0.648061,-3.163108 -1.073025,-4.721312 -0.292848,-1.073774 -0.8347,-1.892283 -1.073026,-3.004471 -0.470997,-2.197987 -0.516468,-4.53089 -0.751117,-6.760059 -0.330422,-3.139007 0.445978,-6.428075 0,-9.549926 C 31.677632,25.916301 31.953825,16.910106 25.967213,11.588674 25.511765,11.183831 25.148382,10.589094 24.57228,10.301043 22.501513,9.2656595 18.135696,7.4030197 15.773472,8.6915052 14.80972,9.2171883 13.823464,9.9368285 12.876304,10.515648 5.6020997,14.960995 4.9359165,22.116678 4.9359165,29.937407 c 0,2.659932 -0.2020809,5.427747 0.3219076,8.04769 0.5645291,2.822645 1.5051584,5.498735 1.8241431,8.369597 0.3999939,3.599946 0.5429104,7.655408 0.2146051,11.266767 -0.3106093,3.416702 -3.004471,6.158917 -3.004471,9.549925 z"
     id="path1285" />
  <circle
     id="path1353"
     style="fill:#000000;stroke:none"
     cx="11.159463"
     cy="28.327869"
     r="2.8346457" />
  <circle
     id="path1355"
     style="fill:#000000;stroke:none"
     cx="24.464977"
     cy="22.426229"
     r="2.8346457" />
  <path
     style="fill:none;stroke:#000000;stroke-width:3.77953;stroke-linecap:round;stroke-linejoin:round;stroke-miterlimit:10;paint-order:stroke fill markers"
     d="m 12.339791,38.843517 c 1.490512,-0.477043 2.204282,1.964553 3.648286,2.253353 1.251032,0.250207 2.375903,-0.544136 3.433682,-1.073025 2.406736,-1.203368 3.261746,-3.562946 2.038748,-6.008942"
     id="path1357" />
</svg>
